<svg enable-background="new 0 0 100 100" height="100" viewBox="0 0 100 100" width="100" xmlns="http://www.w3.org/2000/svg">
  <path fill="#006666" d="m80.667 14h-61.352c-2.934 0-5.315 2.325-5.315 5.188v61.617c0 2.867 2.381 5.195 5.315 5.195h61.352c2.936 0 5.333-2.328 5.333-5.195v-61.617c0-2.863-2.397-5.188-5.333-5.188zm-45.313 61.354h-10.684v-34.359h10.684zm-5.342-39.057c-3.423 0-6.19-2.774-6.19-6.194 0-3.415 2.767-6.189 6.19-6.189 3.415 0 6.189 2.774 6.189 6.189 0 3.42-2.774 6.194-6.189 6.194zm45.338 39.057h-10.667v-16.708c0-3.986-.078-9.111-5.551-9.111-5.558 0-6.405 4.341-6.405 8.822v16.998h-10.675v-34.36h10.245v4.692h.146c1.426-2.7 4.91-5.549 10.106-5.549 10.806 0 12.802 7.114 12.802 16.369v18.847z"/>
</svg>
