<svg height="512" width="439" xmlns="http://www.w3.org/2000/svg"><path d="m304.804657 24.3809528h-292.6596298c-16.5529213-.7516956-15.8297806-24.246706 0-24.3809528h292.6596298c15.9111938.2409473 16.4802246 23.565073 0 24.3809528zm-292.66329 97.5238095c-16.5479336-.7517014-15.8250103-24.2467041 0-24.3809509h170.7621918c15.9063873.2409515 16.4752655 23.5650711 0 24.3809509zm121.9047603-48.7619019c-16.5479355-.7517014-15.8250122-24.2467079 0-24.3809547l243.9050446.0000038c15.9064026.2409477 16.4752808 23.5650711 0 24.3809509zm195.1408539 24.3809509c15.9063721.2409515 16.4775696 23.5650711.0022888 24.3809509h-97.619339c-16.5479279-.7517014-15.8249969-24.2467041 0-24.3809509zm48.6686707 24.380951c-16.5479431-.7517014-15.8250122-24.2467041 0-24.3809509h24.4764709c15.9064026.2409515 16.4752808 23.5650711 0 24.3809509zm-365.7142849 48.7619095c-16.5479336-.751709-15.8250103-24.2467194 0-24.3809662l48.8574371.0000153c15.9063797.2409515 16.4752655 23.5650635 0 24.3809509zm292.5714321 0c-16.5479431-.751709-15.8250122-24.2467194 0-24.3809662l122.0002747.0000153c15.9064026.2409515 16.4752808 23.5650635 0 24.3809509zm-195.0476227 0c-16.5479355-.751709-15.8250122-24.2467194 0-24.3809662l24.4764862.0000153c15.9063721.2409515 16.4752655 23.5650635 0 24.3809509zm-97.5238094 292.5714263c-16.5479336-.751709-15.8250103-24.2467041 0-24.3809509h48.8574371c15.9063797.2409363 16.4752655 23.5650635 0 24.3809509zm97.5238094 0c-16.5479355-.751709-15.8250122-24.2467041 0-24.3809509h24.4764862c15.9063721.2409363 16.4752655 23.5650635 0 24.3809509zm195.0476227-243.8095245c-16.5479431-.7516937-15.8250122-24.2467041 0-24.3809509h122.0002747c15.9064026.2409515 16.4752808 23.5650635 0 24.3809509zm-292.5714321 0c-16.5479336-.7516937-15.8250103-24.2467041 0-24.3809509h122.0002975c15.9063721.2409515 16.4752655 23.5650635 0 24.3809509zm0 195.0476227c-16.5479336-.751709-15.8250103-24.2467041 0-24.3809509h122.0002975c15.9063721.2409363 16.4752655 23.5650635 0 24.3809509zm0 97.5238037c-16.5479336-.751709-15.8250103-24.2467041 0-24.3809509h122.0002975c15.9063721.2409363 16.4752655 23.5650635 0 24.3809509zm0-243.8095398c-16.5479336-.7516785-15.8250103-24.2466888 0-24.3809357h24.4764843c15.9063797.2409515 16.4752617 23.5650787 0 24.3809662zm73.1428585 0c-16.5479355-.7516785-15.8250122-24.2466888 0-24.3809357h73.2383881c15.9063873.2409515 16.4752655 23.5650787 0 24.3809662zm121.9047546 0c-16.5479279-.7516785-15.8250122-24.2466888 0-24.3809357h195.1431427c15.9064026.2409515 16.4752808 23.5650787 0 24.3809662zm97.523819 48.7619324c-16.5479431-.751709-15.8250122-24.2467041 0-24.3809509h73.2383728c15.9064026.2409363 16.4752808 23.5650635 0 24.3809509zm-146.2857209 0c-16.5479279-.751709-15.8250122-24.2467041 0-24.3809509h97.619339c15.9063721.2409363 16.4752808 23.5650635 0 24.3809509zm-146.2857112 0c-16.5479336-.751709-15.8250103-24.2467041 0-24.3809509h97.6193466c15.9063797.2409363 16.4752579 23.5650635 0 24.3809509zm0 48.7619018c-16.5479336-.751709-15.8250103-24.2467041 0-24.3809509h24.4764843c15.9063797.2409363 16.4752617 23.5650635 0 24.3809509zm73.1428585 0c-16.5479355-.751709-15.8250122-24.2467041 0-24.3809509h219.5240936c15.9064026.2409363 16.4752808 23.5650635 0 24.3809509zm-73.1428585-292.571434c-16.5479336-.7517014-15.8250103-24.2467079 0-24.3809547l73.1919708.0000038c15.967186.2409477 16.5382385 23.5650711 0 24.3809509z"/></svg>